<?xml version="1.0" encoding="UTF-8"?>
<!DOCTYPE svg PUBLIC "-//W3C//DTD SVG 1.1//EN" "http://www.w3.org/Graphics/SVG/1.1/DTD/svg11.dtd">
<svg xmlns="http://www.w3.org/2000/svg" version="1.1" width="363px" height="356px" style="shape-rendering:geometricPrecision; text-rendering:geometricPrecision; image-rendering:optimizeQuality; fill-rule:evenodd; clip-rule:evenodd" xmlns:xlink="http://www.w3.org/1999/xlink">
<g><path style="opacity:1" fill="#50c4ec" d="M -0.5,-0.5 C 120.5,-0.5 241.5,-0.5 362.5,-0.5C 362.5,118.167 362.5,236.833 362.5,355.5C 304.833,355.5 247.167,355.5 189.5,355.5C 189.5,336.167 189.5,316.833 189.5,297.5C 189.5,287.5 189.5,277.5 189.5,267.5C 222.502,267.667 255.502,267.5 288.5,267C 310.503,265.331 324.336,253.831 330,232.5C 333.458,213.362 327.624,197.862 312.5,186C 308.952,184.059 305.286,182.393 301.5,181C 300.891,179.052 300.224,177.218 299.5,175.5C 296.01,168.734 290.343,164.901 282.5,164C 278.179,163.501 273.846,163.334 269.5,163.5C 271.112,159.942 272.445,156.275 273.5,152.5C 277.238,140.434 275.071,129.434 267,119.5C 248.488,100.759 225.988,90.2591 199.5,88C 167.993,84.0341 138.66,90.0341 111.5,106C 100.068,113.409 92.5681,123.576 89,136.5C 88.3523,141.204 88.519,145.871 89.5,150.5C 90.7347,155.212 92.7347,159.545 95.5,163.5C 86.6417,162.402 78.3083,163.902 70.5,168C 68.2345,169.758 66.5678,171.925 65.5,174.5C 64.5386,176.265 64.2053,178.265 64.5,180.5C 48.0765,185.092 37.9098,195.759 34,212.5C 30.4093,235.818 38.9093,252.985 59.5,264C 64.3175,265.869 69.3175,266.869 74.5,267C 107.832,267.5 141.165,267.667 174.5,267.5C 174.5,277.5 174.5,287.5 174.5,297.5C 174.5,316.833 174.5,336.167 174.5,355.5C 116.167,355.5 57.8333,355.5 -0.5,355.5C -0.5,236.833 -0.5,118.167 -0.5,-0.5 Z"/></g>
<g><path style="opacity:1" fill="#fae751" d="M 273.5,152.5 C 265.957,136.799 253.957,125.632 237.5,119C 211.037,108.649 183.703,105.649 155.5,110C 132.31,113.213 112.81,123.38 97,140.5C 94.5651,143.934 92.5651,147.6 91,151.5C 90.6174,150.944 90.1174,150.611 89.5,150.5C 88.519,145.871 88.3523,141.204 89,136.5C 92.5681,123.576 100.068,113.409 111.5,106C 138.66,90.0341 167.993,84.0341 199.5,88C 225.988,90.2591 248.488,100.759 267,119.5C 275.071,129.434 277.238,140.434 273.5,152.5 Z"/></g>
<g><path style="opacity:1" fill="#e1cf48" d="M 273.5,152.5 C 272.445,156.275 271.112,159.942 269.5,163.5C 262.249,164.05 256.416,167.384 252,173.5C 251.503,175.81 251.337,178.143 251.5,180.5C 243.473,185.279 235.139,189.279 226.5,192.5C 196.485,200.466 166.485,200.466 136.5,192.5C 128.327,189.22 120.327,185.553 112.5,181.5C 114.412,175.801 112.745,171.301 107.5,168C 103.658,165.998 99.6582,164.498 95.5,163.5C 92.7347,159.545 90.7347,155.212 89.5,150.5C 90.1174,150.611 90.6174,150.944 91,151.5C 92.5651,147.6 94.5651,143.934 97,140.5C 112.81,123.38 132.31,113.213 155.5,110C 183.703,105.649 211.037,108.649 237.5,119C 253.957,125.632 265.957,136.799 273.5,152.5 Z"/></g>
<g><path style="opacity:1" fill="#504f4a" d="M 147.5,131.5 C 153.155,130.977 156.822,133.477 158.5,139C 157.2,144.994 153.533,147.328 147.5,146C 142.214,141.169 142.214,136.335 147.5,131.5 Z"/></g>
<g><path style="opacity:1" fill="#504f4a" d="M 210.5,132.5 C 218.606,131.062 222.106,134.396 221,142.5C 216.965,147.364 212.632,147.698 208,143.5C 205.542,139.002 206.375,135.336 210.5,132.5 Z"/></g>
<g><path style="opacity:1" fill="#feede8" d="M 219.5,160.5 C 216.019,162.137 213.019,161.47 210.5,158.5C 206.136,162.795 202.303,162.462 199,157.5C 197.309,161.213 194.475,162.379 190.5,161C 189.07,156.697 187.404,156.531 185.5,160.5C 181.987,162.131 178.987,161.464 176.5,158.5C 172.833,162.5 169.167,162.5 165.5,158.5C 161.833,162.5 158.167,162.5 154.5,158.5C 152.422,160.986 149.755,161.986 146.5,161.5C 145.631,159.283 145.298,156.95 145.5,154.5C 170.5,154.5 195.5,154.5 220.5,154.5C 220.483,156.565 220.15,158.565 219.5,160.5 Z"/></g>
<g><path style="opacity:1" fill="#fe6570" d="M 219.5,160.5 C 215.578,172.253 207.578,179.753 195.5,183C 178.065,187.58 163.232,183.413 151,170.5C 148.962,167.757 147.462,164.757 146.5,161.5C 149.755,161.986 152.422,160.986 154.5,158.5C 158.167,162.5 161.833,162.5 165.5,158.5C 169.167,162.5 172.833,162.5 176.5,158.5C 178.987,161.464 181.987,162.131 185.5,160.5C 187.404,156.531 189.07,156.697 190.5,161C 194.475,162.379 197.309,161.213 199,157.5C 202.303,162.462 206.136,162.795 210.5,158.5C 213.019,161.47 216.019,162.137 219.5,160.5 Z"/></g>
<g><path style="opacity:1" fill="#fae751" d="M 95.5,163.5 C 99.6582,164.498 103.658,165.998 107.5,168C 112.745,171.301 114.412,175.801 112.5,181.5C 112.068,182.71 111.401,183.71 110.5,184.5C 96.0817,173.845 81.7483,173.845 67.5,184.5C 66.7784,184.082 66.2784,183.416 66,182.5C 65.5026,179.854 65.3359,177.187 65.5,174.5C 66.5678,171.925 68.2345,169.758 70.5,168C 78.3083,163.902 86.6417,162.402 95.5,163.5 Z"/></g>
<g><path style="opacity:1" fill="#fae750" d="M 269.5,163.5 C 273.846,163.334 278.179,163.501 282.5,164C 290.343,164.901 296.01,168.734 299.5,175.5C 299.793,178.754 299.126,181.754 297.5,184.5C 286.869,176.575 275.202,174.742 262.5,179C 259.172,180.479 256.506,182.645 254.5,185.5C 253.308,183.887 252.308,182.22 251.5,180.5C 251.337,178.143 251.503,175.81 252,173.5C 256.416,167.384 262.249,164.05 269.5,163.5 Z"/></g>
<g><path style="opacity:1" fill="#fdfdfe" d="M 65.5,174.5 C 65.3359,177.187 65.5026,179.854 66,182.5C 66.2784,183.416 66.7784,184.082 67.5,184.5C 70.8456,188.171 74.8456,190.838 79.5,192.5C 60.3447,192.485 49.3447,201.985 46.5,221C 46.9642,237.448 54.9642,248.114 70.5,253C 143.833,253.667 217.167,253.667 290.5,253C 308.148,249.738 317.148,239.071 317.5,221C 314.661,201.991 303.661,192.491 284.5,192.5C 288.033,190.733 291.7,188.9 295.5,187C 296.381,186.292 297.047,185.458 297.5,184.5C 299.126,181.754 299.793,178.754 299.5,175.5C 300.224,177.218 300.891,179.052 301.5,181C 305.286,182.393 308.952,184.059 312.5,186C 327.624,197.862 333.458,213.362 330,232.5C 324.336,253.831 310.503,265.331 288.5,267C 255.502,267.5 222.502,267.667 189.5,267.5C 184.5,267.5 179.5,267.5 174.5,267.5C 141.165,267.667 107.832,267.5 74.5,267C 69.3175,266.869 64.3175,265.869 59.5,264C 38.9093,252.985 30.4093,235.818 34,212.5C 37.9098,195.759 48.0765,185.092 64.5,180.5C 64.2053,178.265 64.5386,176.265 65.5,174.5 Z"/></g>
<g><path style="opacity:1" fill="#e2d04b" d="M 297.5,184.5 C 297.047,185.458 296.381,186.292 295.5,187C 291.7,188.9 288.033,190.733 284.5,192.5C 278.167,192.5 271.833,192.5 265.5,192.5C 261.359,190.928 257.692,188.595 254.5,185.5C 256.506,182.645 259.172,180.479 262.5,179C 275.202,174.742 286.869,176.575 297.5,184.5 Z"/></g>
<g><path style="opacity:1" fill="#e2d04a" d="M 110.5,184.5 C 109.71,185.794 108.71,186.961 107.5,188C 104.107,189.62 100.774,191.12 97.5,192.5C 91.5,192.5 85.5,192.5 79.5,192.5C 74.8456,190.838 70.8456,188.171 67.5,184.5C 81.7483,173.845 96.0817,173.845 110.5,184.5 Z"/></g>
<g><path style="opacity:1" fill="#eff2f5" d="M 251.5,180.5 C 252.308,182.22 253.308,183.887 254.5,185.5C 257.692,188.595 261.359,190.928 265.5,192.5C 252.5,192.5 239.5,192.5 226.5,192.5C 235.139,189.279 243.473,185.279 251.5,180.5 Z"/></g>
<g><path style="opacity:1" fill="#eef2f6" d="M 112.5,181.5 C 120.327,185.553 128.327,189.22 136.5,192.5C 123.5,192.5 110.5,192.5 97.5,192.5C 100.774,191.12 104.107,189.62 107.5,188C 108.71,186.961 109.71,185.794 110.5,184.5C 111.401,183.71 112.068,182.71 112.5,181.5 Z"/></g>
<g><path style="opacity:1" fill="#3a7adf" d="M 79.5,192.5 C 85.5,192.5 91.5,192.5 97.5,192.5C 110.5,192.5 123.5,192.5 136.5,192.5C 166.485,200.466 196.485,200.466 226.5,192.5C 239.5,192.5 252.5,192.5 265.5,192.5C 271.833,192.5 278.167,192.5 284.5,192.5C 303.661,192.491 314.661,201.991 317.5,221C 317.148,239.071 308.148,249.738 290.5,253C 217.167,253.667 143.833,253.667 70.5,253C 54.9642,248.114 46.9642,237.448 46.5,221C 49.3447,201.985 60.3447,192.485 79.5,192.5 Z"/></g>
<g><path style="opacity:1" fill="#ecf5fc" d="M 113.5,213.5 C 117.167,213.5 120.833,213.5 124.5,213.5C 124.5,220.5 124.5,227.5 124.5,234.5C 126.199,234.34 127.866,234.506 129.5,235C 130.695,238.303 129.362,239.803 125.5,239.5C 122.349,239.189 120.182,237.523 119,234.5C 118.501,228.843 118.334,223.176 118.5,217.5C 116.833,217.5 115.167,217.5 113.5,217.5C 113.5,216.167 113.5,214.833 113.5,213.5 Z"/></g>
<g><path style="opacity:1" fill="#f0f6fc" d="M 192.5,213.5 C 196.167,213.5 199.833,213.5 203.5,213.5C 203.5,220.5 203.5,227.5 203.5,234.5C 206.288,234.077 208.288,235.077 209.5,237.5C 204.538,240.812 200.705,239.812 198,234.5C 197.501,228.843 197.334,223.176 197.5,217.5C 195.833,217.5 194.167,217.5 192.5,217.5C 192.5,216.167 192.5,214.833 192.5,213.5 Z"/></g>
<g><path style="opacity:1" fill="#f1f5fc" d="M 81.5,214.5 C 85.7189,213.979 89.3855,215.146 92.5,218C 91.6008,219.236 90.4341,220.07 89,220.5C 86.5661,219.678 84.0661,219.344 81.5,219.5C 81.33,220.822 81.6634,221.989 82.5,223C 90.7109,223.526 93.8775,227.693 92,235.5C 86.1263,240.796 80.2929,240.796 74.5,235.5C 75.1449,234.354 75.9783,233.354 77,232.5C 79.9036,234.227 83.0703,234.893 86.5,234.5C 86.762,233.022 86.4287,231.689 85.5,230.5C 81.5319,229.608 78.3652,227.608 76,224.5C 74.6696,219.349 76.503,216.015 81.5,214.5 Z"/></g>
<g><path style="opacity:1" fill="#faf9fc" d="M 174.5,215.5 C 178.514,215.334 182.514,215.501 186.5,216C 191.143,218.072 192.643,221.572 191,226.5C 188.303,229.87 184.803,231.204 180.5,230.5C 180.5,233.167 180.5,235.833 180.5,238.5C 178.5,238.5 176.5,238.5 174.5,238.5C 174.5,230.833 174.5,223.167 174.5,215.5 Z"/></g>
<g><path style="opacity:1" fill="#f2f6fc" d="M 275.5,217.5 C 277.5,217.5 279.5,217.5 281.5,217.5C 281.5,218.833 281.5,220.167 281.5,221.5C 283.604,221.201 285.604,221.534 287.5,222.5C 286.288,224.923 284.288,225.923 281.5,225.5C 281.5,228.5 281.5,231.5 281.5,234.5C 283.527,234.338 285.527,234.505 287.5,235C 288.337,236.011 288.67,237.178 288.5,238.5C 277.957,240.625 273.624,236.291 275.5,225.5C 274.5,225.5 273.5,225.5 272.5,225.5C 272.5,224.167 272.5,222.833 272.5,221.5C 273.5,221.5 274.5,221.5 275.5,221.5C 275.5,220.167 275.5,218.833 275.5,217.5 Z"/></g>
<g><path style="opacity:1" fill="#3e81e3" d="M 180.5,219.5 C 185.328,219.385 186.661,221.552 184.5,226C 183.207,226.49 181.873,226.657 180.5,226.5C 180.5,224.167 180.5,221.833 180.5,219.5 Z"/></g>
<g><path style="opacity:1" fill="#f0f5fc" d="M 100.5,220.5 C 108.551,219.884 112.218,223.551 111.5,231.5C 107.774,231.177 104.107,231.511 100.5,232.5C 100.709,233.086 101.043,233.586 101.5,234C 104.236,234.422 106.902,234.422 109.5,234C 110.833,235.333 110.833,236.667 109.5,238C 101.181,241.342 96.1809,238.676 94.5,230C 94.7103,225.638 96.7103,222.471 100.5,220.5 Z"/></g>
<g><path style="opacity:1" fill="#f2f6fc" d="M 140.5,220.5 C 147.833,220.5 151.5,224.167 151.5,231.5C 147.774,231.177 144.107,231.511 140.5,232.5C 142.663,234.72 145.163,235.053 148,233.5C 151.426,236.133 150.926,237.966 146.5,239C 136.284,240.102 132.451,235.602 135,225.5C 136.352,223.251 138.185,221.584 140.5,220.5 Z"/></g>
<g><path style="opacity:1" fill="#f0f4fc" d="M 159.5,220.5 C 163.384,220.024 166.717,221.024 169.5,223.5C 169.081,224.672 168.415,225.672 167.5,226.5C 165.232,225.456 162.899,225.289 160.5,226C 164.041,227.281 167.207,229.115 170,231.5C 170.682,235.18 169.182,237.68 165.5,239C 161.376,240.056 157.71,239.222 154.5,236.5C 154.865,235.098 155.699,234.098 157,233.5C 159.521,234.673 162.021,234.673 164.5,233.5C 161.719,232.093 158.886,230.76 156,229.5C 154.665,225.392 155.832,222.392 159.5,220.5 Z"/></g>
<g><path style="opacity:1" fill="#f1f6fc" d="M 217.5,220.5 C 221.516,219.9 225.016,220.9 228,223.5C 228.579,228.527 228.913,233.527 229,238.5C 228.667,238.833 228.333,239.167 228,239.5C 226.915,238.707 225.748,238.04 224.5,237.5C 220.363,240.37 216.529,240.037 213,236.5C 211.621,232.525 212.787,229.691 216.5,228C 218.833,227.667 221.167,227.333 223.5,227C 220.722,225.608 217.722,225.108 214.5,225.5C 214.5,224.167 214.5,222.833 214.5,221.5C 215.791,221.737 216.791,221.404 217.5,220.5 Z"/></g>
<g><path style="opacity:1" fill="#f1f4fa" d="M 241.5,220.5 C 245.182,219.725 247.682,221.059 249,224.5C 249.499,229.155 249.666,233.821 249.5,238.5C 247.5,238.5 245.5,238.5 243.5,238.5C 243.5,234.167 243.5,229.833 243.5,225.5C 242.178,225.33 241.011,225.663 240,226.5C 239.501,230.486 239.334,234.486 239.5,238.5C 237.5,238.5 235.5,238.5 233.5,238.5C 233.5,232.833 233.5,227.167 233.5,221.5C 235.467,221.261 237.301,221.594 239,222.5C 239.995,221.934 240.828,221.267 241.5,220.5 Z"/></g>
<g><path style="opacity:1" fill="#f3f6fc" d="M 258.5,220.5 C 266.216,220.216 269.883,223.883 269.5,231.5C 265.774,231.177 262.107,231.511 258.5,232.5C 258.709,233.086 259.043,233.586 259.5,234C 262.167,234.333 264.833,234.667 267.5,235C 268.711,235.893 268.711,236.726 267.5,237.5C 261.803,240.745 256.97,239.745 253,234.5C 251.025,228.177 252.858,223.51 258.5,220.5 Z"/></g>
<g><path style="opacity:1" fill="#427fe2" d="M 101.5,225.5 C 103.665,225.116 105.332,225.783 106.5,227.5C 104.5,228.833 102.5,228.833 100.5,227.5C 100.863,226.817 101.196,226.15 101.5,225.5 Z"/></g>
<g><path style="opacity:1" fill="#427ee1" d="M 140.5,225.5 C 142.167,225.5 143.833,225.5 145.5,225.5C 145.5,226.5 145.5,227.5 145.5,228.5C 143.833,228.5 142.167,228.5 140.5,228.5C 140.5,227.5 140.5,226.5 140.5,225.5 Z"/></g>
<g><path style="opacity:1" fill="#467ee0" d="M 258.5,225.5 C 260.167,225.5 261.833,225.5 263.5,225.5C 263.5,226.5 263.5,227.5 263.5,228.5C 261.833,228.5 260.167,228.5 258.5,228.5C 258.5,227.5 258.5,226.5 258.5,225.5 Z"/></g>
<g><path style="opacity:1" fill="#4a7de2" d="M 219.5,230.5 C 220.833,230.5 222.167,230.5 223.5,230.5C 223.616,233.91 221.95,235.244 218.5,234.5C 218.433,233.041 218.766,231.708 219.5,230.5 Z"/></g>
<g><path style="opacity:1" fill="#e4e5e5" d="M 174.5,267.5 C 179.5,267.5 184.5,267.5 189.5,267.5C 189.5,277.5 189.5,287.5 189.5,297.5C 184.5,297.5 179.5,297.5 174.5,297.5C 174.5,287.5 174.5,277.5 174.5,267.5 Z"/></g>
<g><path style="opacity:1" fill="#fefefe" d="M 174.5,297.5 C 179.5,297.5 184.5,297.5 189.5,297.5C 189.5,316.833 189.5,336.167 189.5,355.5C 184.5,355.5 179.5,355.5 174.5,355.5C 174.5,336.167 174.5,316.833 174.5,297.5 Z"/></g>
</svg>
